PathFileType	4	(X/Y/Z)	11_2_31_p1_0-376_filt_butterworth.trc
DataRate	CameraRate	NumFrames	NumMarkers	Units	OrigDataRate	OrigDataStartFrame	OrigNumFrames
59.0	59.0	6	27	m	59.0	47	376
Frame#	Time	RHip			RKnee			RAnkle			RBigToe			RSmallToe			RHeel			LHip			LKnee			LAnkle			LBigToe			LSmallToe			LHeel			Neck			Head			Nose			RShoulder			RElbow			RWrist			RThumb			RIndex			RPinky			LShoulder			LElbow			LWrist			LThumb			LIndex			LPinky			
		X1	Y1	Z1	X2	Y2	Z2	X3	Y3	Z3	X4	Y4	Z4	X5	Y5	Z5	X6	Y6	Z6	X7	Y7	Z7	X8	Y8	Z8	X9	Y9	Z9	X10	Y10	Z10	X11	Y11	Z11	X12	Y12	Z12	X13	Y13	Z13	X14	Y14	Z14	X15	Y15	Z15	X16	Y16	Z16	X17	Y17	Z17	X18	Y18	Z18	X19	Y19	Z19	X20	Y20	Z20	X21	Y21	Z21	X22	Y22	Z22	X23	Y23	Z23	X24	Y24	Z24	X25	Y25	Z25	X26	Y26	Z26	X27	Y27	Z27	
47	0.7966101694915254	0.34854037770323093	0.8325828723397805	0.7691952498012637	0.3561612584223713	0.3913020152699056	0.7284640168622751	0.34330719074318955	-0.06273454728901098	0.785919454207078	0.34933038788004656	-0.0013736326352046663	0.5444938268496398	0.4040604443109115	-0.015863992947583963	0.5889464796626537	0.32540385975556996	-0.11751546464815048	0.8272990112785114	0.15673333032355832	0.8173414481675609	0.7609371378111107	0.16897490940189674	0.4047961787125346	0.7228256047274104	0.1718239273958249	-0.019807192263373963	0.722923582301154	0.19518551461606426	-0.016423640030523948	0.5627577205478285	0.1388059079488913	-0.009847959314058824	0.5853779036944486	0.1831806294545112	-0.08900023018673278	0.7845524637748764	0.23415144169343433	1.3356657767342552	0.7847213054960848	0.2334900372401989	1.5729734582299857	0.7503469668981284	0.2270585385947762	1.4695392309398447	0.6496631100251734	0.3926665265122966	1.2723990191410106	0.7402528316587704	0.43788520193164343	1.0072298017279575	0.7410354305994982	0.33465581395706945	0.8960756906766241	0.5515830620074799	0.2447850237866282	0.8352391759392813	0.47022428065033695	0.24227840344968654	0.8220160311151543	0.4726980548527663	0.25711265376270975	0.7877374429922587	0.5381855463272953	0.10578152791305438	1.2615121633487385	0.7689111948389652	0.0919899405105378	1.0315744293542173	0.6909026633877576	0.1571992927224091	0.8677458406459223	0.5539871080427047	0.2145796343334711	0.8346835168890014	0.46081041369042564	0.22426725080194648	0.8141700352489168	0.4492909739729	0.21288384777411926	0.7843347077234242	0.5114653618589196	
48	0.8135593220338984	0.3487091044093503	0.8305743616340653	0.7717770485953104	0.35529872422489933	0.3909261417963693	0.7284593660833292	0.34309799503102995	-0.06251477159389218	0.7860321601369036	0.34898800037433764	-0.0022129091269765117	0.5446688839248829	0.4033556630869958	-0.012246968659986993	0.5860973105335201	0.32534877717288363	-0.11751921561322268	0.827241272511276	0.1565385455257049	0.8162228580641117	0.7609426166035056	0.16910354861913038	0.4023751486437615	0.7230042400719018	0.1717337841392298	-0.020063203253644496	0.7226991077598461	0.19575736853701362	-0.015450121630366603	0.5622495151418511	0.1388018246819279	-0.009725333551469637	0.5851827577546451	0.1831641425457648	-0.08894373432233488	0.7844808255935377	0.2341369894959517	1.3356689406780096	0.7846544993921422	0.2335655573848378	1.5729862945705988	0.7503667902440136	0.22705130331160558	1.4695910498553004	0.6496240350152936	0.39260549090658237	1.2729536959372487	0.740407905872708	0.4413890624034439	1.00569293919654	0.7495192598617152	0.3374363399135878	0.9016728480740102	0.5511005990366352	0.24867361784276398	0.8422374861614556	0.46710019726327257	0.24876909637689898	0.8317261100422386	0.46392592541906225	0.2653729964677598	0.7955456439548056	0.5296346361038813	0.10576771820805575	1.2613724179250252	0.7688772210276743	0.09024691263825188	1.0314370543094837	0.689923578121465	0.15469041219903712	0.8662712629964806	0.549333715100609	0.2037453246852426	0.8273910573140552	0.4601488257574323	0.21479909850847567	0.809772001921328	0.44009593898235344	0.20073918579596317	0.7760588992780104	0.5093588453944057	
49	0.8305084745762712	0.3488909156087109	0.8287933536601277	0.7741213736649359	0.35444024347120245	0.39083779392298645	0.7281395745626928	0.34291525343918633	-0.06244952919352807	0.7861535186897801	0.3487204088119039	-0.0031356732229818746	0.5447313980997354	0.40246252210602396	-0.009317582495095622	0.5841416984328991	0.3253287705214384	-0.117545797421837	0.8272068371684872	0.15614612018078003	0.8152195669870064	0.7607600301859	0.16917630542186535	0.4000315513049425	0.7231615182156824	0.1716501752242603	-0.020309584024399238	0.7224757864350275	0.19656094785872524	-0.013431916096283358	0.5608870945779407	0.1387672754144132	-0.009477543773589697	0.5850643151202051	0.18321719427432454	-0.08910983960225508	0.7847319060071396	0.23412097753396077	1.335670667746563	0.7846039653753885	0.2339032300501032	1.5729956970799228	0.7504905771578332	0.22705649910867265	1.4695023333303587	0.6496120171290862	0.3924984763376018	1.2739481098458172	0.7405516241475798	0.44417022986859533	1.006055792389603	0.7562491747755326	0.3402818096030844	0.9075671416164248	0.551687925212902	0.2539175781138191	0.8514895575967373	0.4689914104198361	0.2576822021246319	0.8446240062047066	0.4576580465860227	0.2765924544474785	0.807563944826068	0.5182079858360278	0.10575217005245686	1.2613949438924967	0.7688564654471111	0.08770348981521936	1.031837683563109	0.6883736535432666	0.15130813468707383	0.8647174055121116	0.5445164909098574	0.19313044176680588	0.8195363059394157	0.46352632144377226	0.20331422032316415	0.8051814179336557	0.43234607711216555	0.18762162122093073	0.7668529790292613	0.5077528292595941	
50	0.847457627118644	0.3491097904393377	0.8271982559357806	0.7762195382938117	0.35357310953281795	0.39110436086061334	0.7274111029448939	0.3427661254918438	-0.06249061167768848	0.7862857182806565	0.3485742129235908	-0.004067455017803423	0.544796714970613	0.40168738883269994	-0.007659879771665504	0.5834380173155825	0.3253444093888025	-0.1175865620596191	0.8271972064489489	0.15559010208219853	0.8143457540586825	0.7603867790251646	0.1692001246701837	0.39792698218029526	0.7232877854100463	0.17161894926467886	-0.020531226476674963	0.7223177738797109	0.1974724059222916	-0.01050845688958274	0.5587184252746239	0.13872714437059075	-0.009236754633635963	0.5849662713056504	0.18332607261439346	-0.08948363846441848	0.7852021378448415	0.23410465976243267	1.3356661683033422	0.7845819433485548	0.23449500059707817	1.5730001558632485	0.7507088800440747	0.22708097012697076	1.4691834715766388	0.6496379393290657	0.3923708185453744	1.2751911843940733	0.7406663233835836	0.44609895294756896	1.008282328275284	0.7611471428321048	0.3428061992390677	0.9137892637628402	0.5526939784883167	0.25973453199431473	0.8626942391043604	0.4744780572813192	0.26748521257660873	0.8600870771077844	0.4538964132379376	0.2892695795884211	0.823370635331728	0.505400962638095	0.10574224739971094	1.2614608413348893	0.7688515638908806	0.08419787585844857	1.0324539185229367	0.6868918032101051	0.14678337602436198	0.8630187663407584	0.5408503877070581	0.18380911365877423	0.8119738927985091	0.4699853076248407	0.19055601333263378	0.8005857135483528	0.4273309699003863	0.174764591342718	0.7580383062796778	0.5066267031149572	
51	0.864406779661017	0.3493721192799802	0.8256657594599893	0.7780309021093872	0.3527325481614635	0.3917446649269789	0.7263530717024527	0.3426562322497325	-0.06263002896821421	0.7864268223308967	0.3485798417025222	-0.004917706663012902	0.5449089203183638	0.40119474093695784	-0.007489559794279746	0.5841205478335967	0.32539600986914297	-0.11762736078362529	0.827214490093226	0.15493357212342096	0.8135127635342753	0.7598237680841038	0.16918330285893737	0.3960871545896709	0.723382151414381	0.1716657736569107	-0.020718945846284087	0.7222622958721009	0.19833303113468598	-0.006989436082856876	0.556039662592604	0.13869990461613824	-0.00907163457757404	0.584884353032764	0.1834632620782526	-0.08993454724853517	0.7857532331287949	0.23409114266879877	1.3356530865587124	0.7846021603989235	0.23525062249633089	1.572997743107659	0.7509947698896275	0.22712530751423782	1.4686376610148921	0.6496965041893212	0.3922539113472308	1.2764022208153833	0.7407538635282908	0.4473780802841416	1.0117693305152395	0.7646813093714946	0.3447824669874546	0.9207214451180195	0.5531556926215455	0.2654243326553369	0.8754051440972332	0.4806847608108379	0.2765570047786087	0.8770089183028728	0.4516985703096037	0.3015280530389163	0.8418484114640727	0.4928604137943129	0.10574038220551345	1.2615061372674499	0.7688498913468774	0.07960928790890548	1.0326852524224184	0.6866044706221825	0.1409946719628386	0.861041285377404	0.5395792030079918	0.17622654415440955	0.8052516594957628	0.47779467737514475	0.1774789996363708	0.7962811932077958	0.42556203996985353	0.16345637180322695	0.751021823068562	0.5056535662331253	
52	0.8813559322033898	0.3496729294992328	0.8241030399339742	0.7795133062503579	0.3519853997212991	0.3927215706824052	0.7251599151603574	0.3425890026511016	-0.06288256278110488	0.7865736883404452	0.3487250053362403	-0.005612418758152687	0.5450423575461627	0.40108794948301774	-0.008300405524832452	0.5856606462953398	0.32547953962407355	-0.11764080289033446	0.8272581614028713	0.1542462987288865	0.8126404366645285	0.7590826824584437	0.16912406047173936	0.39445974247275994	0.7234489912540368	0.17180665989625438	-0.02087425254417964	0.7223279829467392	0.1990549793354416	-0.0034147427428460747	0.5532299528714686	0.13869628693176353	-0.008969957977988247	0.5848489883025145	0.18361734992046372	-0.09039122078376378	0.7863544825616604	0.23408158549278626	1.3356331033761923	0.7846600578419526	0.23603825782085625	1.572982100581392	0.7513542475934292	0.22718506921470805	1.4679439850932323	0.6497749373145596	0.3921738955466927	1.2773201041775928	0.7408258593269355	0.44847270679706175	1.0156308958580336	0.7675338589086098	0.3461789575566483	0.9288501577164636	0.5525106361570851	0.2705625677822294	0.8891248335964675	0.4846234619472224	0.28364230192814816	0.894104910799702	0.4499528491575387	0.31169654744814673	0.8611246414929874	0.48204104224825073	0.105745545057196	1.2615343503361123	0.7688478269879273	0.07394468471344705	1.0320870946623244	0.6883890413359735	0.13404592084631906	0.8587347508520328	0.5410675005379852	0.17023999293474223	0.7996396066348559	0.48516370419389404	0.16501334556333402	0.7925707568978705	0.42651178571571663	0.15460032886381941	0.7468898541848669	0.5044282922716233	
